<svg width="500" height="500" xmlns="http://www.w3.org/2000/svg" xml:space="preserve" version="1.1">

 <g>
  <title>Layer 1</title>
  <g id="svg_1">
   <path id="svg_2" d="m141.644,327.387c-11.369,0 -20.618,9.249 -20.618,20.618c0,11.369 9.25,20.618 20.618,20.618s20.618,-9.249 20.618,-20.618c0,-11.369 -9.25,-20.618 -20.618,-20.618zm0,26.236c-3.098,0 -5.618,-2.521 -5.618,-5.618s2.521,-5.618 5.618,-5.618s5.618,2.52 5.618,5.618s-2.521,5.618 -5.618,5.618z"/>
   <path id="svg_3" d="m354.876,327.387c-11.369,0 -20.618,9.249 -20.618,20.618c0,11.369 9.25,20.618 20.618,20.618s20.618,-9.249 20.618,-20.618c0.001,-11.369 -9.249,-20.618 -20.618,-20.618zm0,26.236c-3.098,0 -5.618,-2.521 -5.618,-5.618s2.521,-5.618 5.618,-5.618s5.618,2.52 5.618,5.618s-2.52,5.618 -5.618,5.618z"/>
   <path id="svg_4" d="m444,311.826l0,-70.374l0,-76.644c0,-23.871 -19.421,-43.292 -43.292,-43.292l-280.935,0c-37.083,0 -67.253,30.17 -67.253,67.253l0,123.056c-5.776,4.339 -9.52,11.246 -9.52,19.011l0,0.92c0,13.096 10.654,23.75 23.75,23.75l30.533,0c3.583,21.253 22.105,37.497 44.361,37.497s40.778,-16.244 44.361,-37.497l124.511,0c3.583,21.253 22.105,37.497 44.361,37.497s40.778,-16.244 44.361,-37.497l30.533,0c13.096,0 23.75,-10.654 23.75,-23.75l0,-0.92c-0.001,-7.765 -3.745,-14.672 -9.521,-19.01zm-15,-77.874l-20.583,0c-1.053,0 -1.91,-0.856 -1.91,-1.91l0,-57.824c0,-1.053 0.856,-1.91 1.91,-1.91l20.583,0l0,61.644zm-371,97.804l0,-0.92c0,-4.83 3.925,-8.76 8.75,-8.76l38.151,0c-3.817,5.393 -6.477,11.655 -7.619,18.43l-30.532,0c-4.825,0 -8.75,-3.925 -8.75,-8.75zm83.644,46.247c-16.541,0 -29.998,-13.458 -29.998,-29.999s13.457,-29.998 29.998,-29.998s29.998,13.457 29.998,29.998s-13.457,29.999 -29.998,29.999zm168.871,-37.497l-124.51,0c-3.582,-21.254 -22.105,-37.5 -44.361,-37.5c-6.657,0 -12.974,1.464 -18.665,4.07l-55.459,0l0,-118.306c0,-28.813 23.441,-52.253 52.253,-52.253l280.935,0c13.003,0 23.979,8.821 27.275,20.792l-19.567,0c-9.324,0 -16.91,7.585 -16.91,16.91l0,57.824c0,9.324 7.585,16.91 16.91,16.91l20.584,0l0,58.125l-55.459,0c-5.69,-2.605 -12.008,-4.07 -18.665,-4.07c-22.256,-0.001 -40.779,16.245 -44.361,37.498zm44.361,37.497c-16.541,0 -29.998,-13.458 -29.998,-29.999s13.457,-29.998 29.998,-29.998s29.998,13.457 29.998,29.998s-13.457,29.999 -29.998,29.999zm83.644,-46.247c0,4.825 -3.925,8.75 -8.75,8.75l-30.532,0c-1.142,-6.775 -3.802,-13.037 -7.619,-18.43l38.151,0c4.825,0 8.75,3.93 8.75,8.76l0,0.92z"/>
   <path id="svg_5" d="m369.377,232.042l0,-57.824c0,-9.324 -7.585,-16.91 -16.91,-16.91l-230.925,0c-19.952,0 -36.184,16.232 -36.184,36.184l0,38.55c0,9.324 7.585,16.91 16.91,16.91l250.2,0c9.324,0 16.909,-7.586 16.909,-16.91zm-134.509,-59.734l58.961,0l0,61.644l-58.961,0l0,-61.644zm-15,61.644l-58.96,0l0,-61.644l58.96,0l0,61.644zm-119.51,-1.91l0,-38.55c0,-11.681 9.503,-21.184 21.184,-21.184l24.366,0l0,61.644l-43.64,0c-1.054,0 -1.91,-0.857 -1.91,-1.91zm254.019,0c0,1.053 -0.856,1.91 -1.91,1.91l-43.639,0l0,-61.644l43.639,0c1.053,0 1.91,0.856 1.91,1.91l0,57.824z"/>
   <path id="svg_6" d="m412.537,295.413c4.142,0 7.5,-3.358 7.5,-7.5l0,-6.667c0,-4.142 -3.358,-7.5 -7.5,-7.5s-7.5,3.358 -7.5,7.5l0,6.667c0,4.142 3.358,7.5 7.5,7.5z"/>
  </g>
  <g id="svg_7"/>
  <g id="svg_8"/>
  <g id="svg_9"/>
  <g id="svg_10"/>
  <g id="svg_11"/>
  <g id="svg_12"/>
  <g id="svg_13"/>
  <g id="svg_14"/>
  <g id="svg_15"/>
  <g id="svg_16"/>
  <g id="svg_17"/>
  <g id="svg_18"/>
  <g id="svg_19"/>
  <g id="svg_20"/>
  <g id="svg_21"/>
  <rect id="svg_25" height="31" width="348.99997" y="136.74" x="79.26003" opacity="NaN" stroke="#000" fill="#030a0a"/>
  <rect id="svg_23" height="77" width="370" y="239.74001" x="60.26001" stroke="#000" fill="#030a0a"/>
  <rect id="svg_24" height="119" width="40" y="133.74001" x="360.26001" stroke="#000" fill="#030a0a"/>
  <rect id="svg_26" height="27.04" width="145.99999" y="316.70001" x="175.26002" opacity="NaN" stroke="#000" fill="#030a0a"/>
  <rect id="svg_27" height="88.00001" width="29" y="155.74" x="66.26001" stroke="#000" fill="#030a0a"/>
  <rect id="svg_28" height="32.99999" width="50" y="319.74" x="390.26001" stroke="#000" fill="#030a0a"/>
  <rect id="svg_29" height="32.99999" width="50" y="314.74" x="56.26001" stroke="#000" fill="#030a0a"/>
 </g>
</svg>